<svg width="93" height="63" viewBox="0 0 93 63" fill="none" xmlns="http://www.w3.org/2000/svg">
<line x1="46.5" y1="22.0199" x2="46.5" y2="52.0199" stroke="black"/>
<line x1="69.304" y1="2.4372" x2="24.2809" y2="40.5675" stroke="black"/>
<path d="M52 57.0199C46.5 57.0199 49.5376 57.0199 46.5 57.0199C43.4624 57.0199 44.3537 57.0199 41 57.0199C41 54.2585 43.4624 52.0199 46.5 52.0199C49.5376 52.0199 52 54.2585 52 57.0199Z" fill="black"/>
<line x1="40" y1="57.5199" x2="53" y2="57.5199" stroke="black"/>
<line x1="39" y1="59.5199" x2="54" y2="59.5199" stroke="black"/>
<line y1="61.5199" x2="93" y2="61.5199" stroke="black"/>
<line x1="46.5" y1="21.0199" x2="46.5" y2="8.01991" stroke="black"/>
<circle cx="46.5" cy="21.5199" r="1.25" fill="black" stroke="white" stroke-width="0.5"/>
<circle cx="23.8993" cy="40.8907" r="1.25" transform="rotate(-40.2615 23.8993 40.8907)" fill="black" stroke="white" stroke-width="0.5"/>
<circle cx="69.6855" cy="2.11407" r="1.25" transform="rotate(-40.2615 69.6855 2.11407)" fill="black" stroke="white" stroke-width="0.5"/>
<path d="M47.75 6.01991C47.75 6.81794 47.5877 7.52807 47.3371 8.02943C47.0789 8.54575 46.7685 8.76991 46.5 8.76991C46.2315 8.76991 45.9211 8.54575 45.6629 8.02943C45.4123 7.52807 45.25 6.81794 45.25 6.01991C45.25 5.22188 45.4123 4.51176 45.6629 4.0104C45.9211 3.49408 46.2315 3.26991 46.5 3.26991C46.7685 3.26991 47.0789 3.49408 47.3371 4.0104C47.5877 4.51176 47.75 5.22188 47.75 6.01991Z" fill="black" stroke="white" stroke-width="0.5"/>
<line x1="41.1276" y1="25.6448" x2="37.8962" y2="21.8292" stroke="black"/>
<line x1="51.811" y1="16.5969" x2="48.5796" y2="12.7813" stroke="black"/>
<circle cx="52.3678" cy="14.1597" r="1.5" transform="rotate(-40.2615 52.3678 14.1597)" fill="#00CC2D"/>
<line x1="39.25" y1="60.0199" x2="39.25" y2="61.0199" stroke="black" stroke-width="0.5"/>
<line x1="40.25" y1="58.0199" x2="40.25" y2="59.0199" stroke="black" stroke-width="0.5"/>
<line x1="53.75" y1="61.0199" x2="53.75" y2="60.0199" stroke="black" stroke-width="0.5"/>
<line x1="52.75" y1="59.0199" x2="52.75" y2="58.0199" stroke="black" stroke-width="0.5"/>
<path d="M49.75 14.5199C49.75 16.9292 48.2401 18.7699 46.5 18.7699C44.7599 18.7699 43.25 16.9292 43.25 14.5199C43.25 12.1106 44.7599 10.2699 46.5 10.2699C48.2401 10.2699 49.75 12.1106 49.75 14.5199Z" stroke="black" stroke-width="0.5"/>
<path d="M9.72603 59.977C9.51264 60.0342 9.01706 59.6493 9.01706 59.6493C9.01706 59.6493 9.25382 59.0683 9.46721 59.0111C9.68059 58.9539 9.91151 59.1238 9.98298 59.3905C10.0545 59.6572 9.93941 59.9198 9.72603 59.977Z" fill="#CE0000"/>
<path d="M12.1915 57.698C11.8695 57.8839 10.8962 57.4741 10.8962 57.4741C10.8962 57.4741 11.028 56.4264 11.35 56.2405C11.672 56.0546 12.1214 56.2301 12.3537 56.6326C12.5861 57.0351 12.5135 57.5121 12.1915 57.698Z" fill="#CE0000"/>
<path d="M8.00882 56.5527C7.95164 56.7661 7.37057 57.0029 7.37057 57.0029C7.37057 57.0029 6.98572 56.5073 7.0429 56.2939C7.10007 56.0805 7.36264 55.9655 7.62938 56.037C7.89611 56.1084 8.066 56.3393 8.00882 56.5527Z" fill="#CE0000"/>
<path d="M4.04145 57.3542C4.34047 57.6532 4.1768 58.8431 4.1768 58.8431C4.1768 58.8431 2.98692 59.0068 2.6879 58.7078C2.38889 58.4088 2.44947 57.8634 2.82324 57.4896C3.19701 57.1158 3.74243 57.0552 4.04145 57.3542Z" fill="#CE0000"/>
<path d="M5.8629 54.0076C6.00099 54.5229 5.07155 55.7198 5.07155 55.7198C5.07155 55.7198 3.6682 55.148 3.53012 54.6327C3.39203 54.1173 3.80228 53.5596 4.44646 53.387C5.09064 53.2144 5.72482 53.4922 5.8629 54.0076Z" fill="#CE0000"/>
<path d="M1.78286 59.0956C1.93907 59.2519 1.85357 59.8735 1.85357 59.8735C1.85357 59.8735 1.23196 59.959 1.07575 59.8028C0.919541 59.6465 0.951191 59.3616 1.14645 59.1664C1.34172 58.9711 1.62665 58.9394 1.78286 59.0956Z" fill="#CE0000"/>
<path d="M12.3121 53.4149C12.0131 53.7139 10.8232 53.5502 10.8232 53.5502C10.8232 53.5502 10.6596 52.3604 10.9586 52.0613C11.2576 51.7623 11.803 51.8229 12.1768 52.1967C12.5505 52.5704 12.6112 53.1159 12.3121 53.4149Z" fill="#CE0000"/>
<path d="M13 59.0199C13.5 57.5199 15.5 57.5199 16 59.0199" stroke="black" stroke-width="0.1"/>
<path d="M11.7733 59.9314C12.5677 58.497 14.2167 58.907 14.2468 60.5464" stroke="black" stroke-width="0.1"/>
<path d="M11.0862 60.1258C11.4028 59.7102 12.2059 59.9099 12.2909 60.4253" stroke="black" stroke-width="0.1"/>
<path d="M10.0162 60.4351C10.2013 59.9466 11.028 59.9094 11.2563 60.3793" stroke="black" stroke-width="0.1"/>
<path d="M15 60.5277C15.3144 59.8829 16.1582 60.0118 16.2657 60.7211" stroke="black" stroke-width="0.1"/>
<path d="M20 57.2791C20.2344 56.9727 20.6454 57.1293 20.6165 57.5141" stroke="black" stroke-width="0.1"/>
<path d="M19 60.4726C19.4526 59.9442 20.6625 60.2451 20.815 60.9238" stroke="black" stroke-width="0.1"/>
<path d="M15.0181 57.9738C16.4053 57.215 17.8707 58.576 17.2164 60.0153" stroke="black" stroke-width="0.1"/>
<path d="M15.9404 57.7802C16.6268 56.5386 18.5416 56.8405 18.8126 58.2331" stroke="black" stroke-width="0.1"/>
<path d="M17.959 59.0248C19.1476 57.296 21.2095 58.0224 21.0519 60.1145" stroke="black" stroke-width="0.1"/>
<path d="M20.5742 58.5736C21.3321 57.5707 22.9074 58.0783 22.9371 59.3351" stroke="black" stroke-width="0.1"/>
<path d="M18.2019 57.3036C19.1679 55.6983 21.2821 56.2304 21.3731 58.1017" stroke="black" stroke-width="0.1"/>
<path d="M20.9755 59.368C22.1453 58.4293 23.8454 59.4827 23.5257 60.948" stroke="black" stroke-width="0.1"/>
<line x1="4" y1="60.7699" x2="9" y2="60.7699" stroke="#CE0000" stroke-width="0.5"/>
<path d="M8 60.5199C8 60.3229 7.9612 60.1279 7.88582 59.9459C7.81044 59.7639 7.69995 59.5985 7.56066 59.4593C7.42137 59.32 7.25601 59.2095 7.07403 59.1341C6.89204 59.0587 6.69698 59.0199 6.5 59.0199C6.30302 59.0199 6.10796 59.0587 5.92597 59.1341C5.74399 59.2095 5.57863 59.32 5.43934 59.4593C5.30005 59.5985 5.18956 59.7639 5.11418 59.9459C5.0388 60.1279 5 60.3229 5 60.5199L6.5 60.5199H8Z" fill="#CE0000"/>
</svg>
